<?xml version="1.0" encoding="utf-8"?>
<!-- Generator: Adobe Illustrator 26.0.1, SVG Export Plug-In . SVG Version: 6.00 Build 0)  -->
<svg version="1.1" id="Layer_1" xmlns="http://www.w3.org/2000/svg" xmlns:xlink="http://www.w3.org/1999/xlink" x="0px" y="0px"
	 viewBox="0 0 2503.1 1080" style="enable-background:new 0 0 2503.1 1080;" xml:space="preserve">
<style type="text/css">
	.st0{fill:#D9E021;}
	.st1{fill:#8CC63F;}
	.st2{fill:none;stroke:#000000;stroke-width:12;stroke-linecap:square;stroke-miterlimit:10;}
	.st3{fill:none;stroke:#000000;stroke-width:13.9457;stroke-linecap:square;stroke-miterlimit:10;}
	.st4{fill:none;stroke:#000000;stroke-width:0.4703;stroke-linecap:square;stroke-miterlimit:10;}
	.st5{fill:#00585F;}
	.st6{fill:#141428;}
</style>
<g>
	<path class="st6" d="M1043,766H836.3V392.6h62v321.1H1043V766z"/>
	<path class="st6" d="M1213.8,766H1150V392.6h63.8V766z"/>
	<path class="st6" d="M1512.9,772.3c-26.9,0-51.3-4.6-73.2-13.8c-21.9-9.2-40.5-22.1-56-38.7c-15.5-16.6-27.4-36.4-35.9-59.5
		c-8.5-23.1-12.8-48.6-12.8-76.6c0-29.9,4.3-56.9,12.9-81.2c8.6-24.3,20.8-45,36.7-62.2c15.9-17.2,35.2-30.5,57.9-39.8
		c22.7-9.4,48.2-14.1,76.3-14.1c26,0,49.8,4.6,71.3,13.8c21.5,9.2,39.9,22.1,55.2,38.7c15.3,16.6,27.1,36.4,35.5,59.5
		c8.4,23.1,12.6,48.5,12.6,76.3c0,36.8-6.2,69-18.5,96.7c-12.3,27.7-29.7,50-52.1,66.8l108.3,78.1h-94.3l-66.7-51.8
		c-8.9,2.4-18.1,4.3-27.6,5.7C1533.3,771.6,1523.4,772.3,1512.9,772.3z M1515.8,440.8c-17,0-32.6,3.3-46.7,10
		c-14.2,6.7-26.3,16.1-36.6,28.4c-10.2,12.2-18.2,26.9-23.8,43.9c-5.6,17-8.5,35.9-8.5,56.8c0,20.7,2.7,39.5,8.2,56.5
		c5.5,17,13.2,31.6,23,43.6c9.9,12.1,21.8,21.4,35.7,28.1c13.9,6.7,29.2,10,46.1,10c17.9,0,33.9-3.1,48.2-9.4
		c14.2-6.2,26.3-15.2,36.3-26.9c10-11.7,17.7-26.1,23-43.1c5.4-17,8.1-36.4,8.1-58.1c0-22.2-2.6-42-7.8-59.4
		c-5.2-17.4-12.7-32-22.4-43.9c-9.7-11.9-21.6-21-35.5-27.2C1549.1,443.9,1533.3,440.8,1515.8,440.8z"/>
	<path class="st6" d="M2116,766h-68l-33.6-95h-146.9l-32.3,95h-67.7l139.8-373.4h69.8L2116,766z M1998,620.5l-51.8-148.9
		c-1.6-4.9-3.2-12.7-4.9-23.4h-1c-1.6,9.9-3.3,17.7-5.2,23.4l-51.3,148.9H1998z"/>
	<path class="st6" d="M2503.1,766h-80.7l-129.9-170.8c-4.9-6.4-7.8-10.8-8.9-13h-1V766h-62V392.6h62v175.5h1c2.1-3.8,5-8.1,8.9-12.8
		l125.3-162.7h74.2l-146.6,179.2L2503.1,766z"/>
</g>
<g>
	<path class="st5" d="M375.9,55.3c-57.9,0-111.1,13.8-157.3,37.8c15.3,15.2,30.4,31.1,45,47.6c34.6-15.1,72.7-23.2,112.3-23.2
		c101,0,191.4,52.2,241.9,139.7c50.5,87.5,50.5,191.9,0,279.4l-241.9,419l-241.9-419c-50.5-87.5-50.5-191.9,0-279.4
		c7.2-12.5,15.2-24.2,24-35.2c-12.9-17.1-26.3-33.5-40-49.2C28.3,276.6,1.9,432.2,80.1,567.7L375.9,1080l295.8-512.3
		C803.1,339.9,638.8,55.3,375.9,55.3z"/>
	<path class="st6" d="M385.5,429.2C310.7,255.5,160.2,75.3,0,0c156.2,94.3,294.2,296.3,351.7,474.1c7.1,21.9,12.9,43.4,17.5,64.3
		c1.5,7.1,4,18.8,6.2,29.2l2.8-16.2c4.6-24.9,14.1-49.4,26.8-72.4c15.7-28.6,36-55,57.5-77.6c42.2-43.6,92.9-79.2,149.7-94.8
		C527.1,311.9,445.6,361.6,385.5,429.2z"/>
</g>
</svg>
