<?xml version="1.0" encoding="utf-8"?>
<!-- Generator: Adobe Illustrator 26.0.1, SVG Export Plug-In . SVG Version: 6.00 Build 0)  -->
<svg version="1.1" id="Layer_1" xmlns="http://www.w3.org/2000/svg" xmlns:xlink="http://www.w3.org/1999/xlink" x="0px" y="0px"
	 viewBox="0 0 717.9 1080" style="enable-background:new 0 0 717.9 1080;" xml:space="preserve">
<style type="text/css">
	.st0{fill:#D9E021;}
	.st1{fill:#8CC63F;}
	.st2{fill:none;stroke:#000000;stroke-width:12;stroke-linecap:square;stroke-miterlimit:10;}
	.st3{fill:none;stroke:#000000;stroke-width:13.9457;stroke-linecap:square;stroke-miterlimit:10;}
	.st4{fill:none;stroke:#000000;stroke-width:0.4703;stroke-linecap:square;stroke-miterlimit:10;}
	.st5{fill:#00585F;}
	.st6{fill:#141428;}
</style>
<g>
	<path class="st5" d="M375.9,55.3c-57.9,0-111.1,13.8-157.3,37.8c15.3,15.2,30.4,31.1,45,47.6c34.6-15.1,72.7-23.2,112.3-23.2
		c101,0,191.4,52.2,241.9,139.7c50.5,87.5,50.5,191.9,0,279.4l-241.9,419l-241.9-419c-50.5-87.5-50.5-191.9,0-279.4
		c7.2-12.5,15.2-24.2,24-35.2c-12.9-17.1-26.3-33.5-40-49.2C28.3,276.6,1.9,432.2,80.1,567.7L375.9,1080l295.8-512.3
		C803.1,339.9,638.8,55.3,375.9,55.3z"/>
	<path class="st6" d="M385.5,429.2C310.7,255.5,160.2,75.3,0,0c156.2,94.3,294.2,296.3,351.7,474.1c7.1,21.9,12.9,43.4,17.5,64.3
		c1.5,7.1,4,18.8,6.2,29.2l2.8-16.2c4.6-24.9,14.1-49.4,26.8-72.4c15.7-28.6,36-55,57.5-77.6c42.2-43.6,92.9-79.2,149.7-94.8
		C527.1,311.9,445.6,361.6,385.5,429.2z"/>
</g>
</svg>
